<svg id="visual" viewBox="0 0 960 540" width="960" height="540" xmlns="http://www.w3.org/2000/svg" xmlns:xlink="http://www.w3.org/1999/xlink" version="1.1"><g stroke-width="1" stroke-linejoin="bevel"><path d="M461.7 263L396.7 340L496.3 341Z" fill="#00101c" stroke="#00101c"></path><path d="M496.3 341L566.3 299L461.7 263Z" fill="#00101c" stroke="#00101c"></path><path d="M461.7 263L340 247L396.7 340Z" fill="#246688" stroke="#246688"></path><path d="M570.3 191L452.7 167L461.7 263Z" fill="#246688" stroke="#246688"></path><path d="M461.7 263L452.7 167L340 247Z" fill="#081a28" stroke="#081a28"></path><path d="M320 451L446.7 468L396.7 340Z" fill="#00101c" stroke="#00101c"></path><path d="M396.7 340L446.7 468L496.3 341Z" fill="#205a7a" stroke="#205a7a"></path><path d="M496.3 341L623 343L566.3 299Z" fill="#1d4e6b" stroke="#1d4e6b"></path><path d="M446.7 468L501.3 478L496.3 341Z" fill="#0c2435" stroke="#0c2435"></path><path d="M340 247L280 356L396.7 340Z" fill="#00101c" stroke="#00101c"></path><path d="M566.3 299L570.3 191L461.7 263Z" fill="#081a28" stroke="#081a28"></path><path d="M501.3 478L623 343L496.3 341Z" fill="#00101c" stroke="#00101c"></path><path d="M677 264L622 162L570.3 191Z" fill="#0c2435" stroke="#0c2435"></path><path d="M280 356L320 451L396.7 340Z" fill="#19435d" stroke="#19435d"></path><path d="M446.7 468L463.7 540L501.3 478Z" fill="#15384f" stroke="#15384f"></path><path d="M452.7 167L315 145L340 247Z" fill="#246688" stroke="#246688"></path><path d="M340 247L212.3 296L280 356Z" fill="#19435d" stroke="#19435d"></path><path d="M337 540L463.7 540L446.7 468Z" fill="#205a7a" stroke="#205a7a"></path><path d="M501.3 478L631 466L623 343Z" fill="#15384f" stroke="#15384f"></path><path d="M677 264L570.3 191L566.3 299Z" fill="#277297" stroke="#277297"></path><path d="M524.3 71L410.7 84L452.7 167Z" fill="#19435d" stroke="#19435d"></path><path d="M452.7 167L356 89L315 145Z" fill="#15384f" stroke="#15384f"></path><path d="M524.3 71L452.7 167L570.3 191Z" fill="#15384f" stroke="#15384f"></path><path d="M463.7 540L519.3 540L501.3 478Z" fill="#297ea6" stroke="#297ea6"></path><path d="M249.3 141L212.3 296L340 247Z" fill="#0c2435" stroke="#0c2435"></path><path d="M280 356L246.3 451L320 451Z" fill="#277297" stroke="#277297"></path><path d="M750.7 247L677 264L774.7 392Z" fill="#15384f" stroke="#15384f"></path><path d="M623 343L677 264L566.3 299Z" fill="#0c2435" stroke="#0c2435"></path><path d="M602 540L631 466L501.3 478Z" fill="#112e42" stroke="#112e42"></path><path d="M195.3 359L246.3 451L280 356Z" fill="#112e42" stroke="#112e42"></path><path d="M320 451L337 540L446.7 468Z" fill="#0c2435" stroke="#0c2435"></path><path d="M410.7 84L356 89L452.7 167Z" fill="#1d4e6b" stroke="#1d4e6b"></path><path d="M246.3 451L337 540L320 451Z" fill="#0c2435" stroke="#0c2435"></path><path d="M212.3 296L195.3 359L280 356Z" fill="#277297" stroke="#277297"></path><path d="M622 162L524.3 71L570.3 191Z" fill="#205a7a" stroke="#205a7a"></path><path d="M410.7 84L428.7 0L356 89Z" fill="#19435d" stroke="#19435d"></path><path d="M356 89L249.3 141L315 145Z" fill="#081a28" stroke="#081a28"></path><path d="M315 145L249.3 141L340 247Z" fill="#19435d" stroke="#19435d"></path><path d="M212.3 296L106.7 300L195.3 359Z" fill="#1d4e6b" stroke="#1d4e6b"></path><path d="M750.7 247L640 128L622 162Z" fill="#246688" stroke="#246688"></path><path d="M622 162L640 128L524.3 71Z" fill="#081a28" stroke="#081a28"></path><path d="M519.3 540L602 540L501.3 478Z" fill="#297ea6" stroke="#297ea6"></path><path d="M774.7 392L677 264L623 343Z" fill="#1d4e6b" stroke="#1d4e6b"></path><path d="M677 264L750.7 247L622 162Z" fill="#1d4e6b" stroke="#1d4e6b"></path><path d="M774.7 392L623 343L631 466Z" fill="#0c2435" stroke="#0c2435"></path><path d="M499.3 0L410.7 84L524.3 71Z" fill="#00101c" stroke="#00101c"></path><path d="M499.3 0L428.7 0L410.7 84Z" fill="#081a28" stroke="#081a28"></path><path d="M283 0L207.3 56L249.3 141Z" fill="#297ea6" stroke="#297ea6"></path><path d="M658 0L499.3 0L524.3 71Z" fill="#297ea6" stroke="#297ea6"></path><path d="M246.3 451L197.3 540L337 540Z" fill="#1d4e6b" stroke="#1d4e6b"></path><path d="M102.7 467L197.3 540L246.3 451Z" fill="#205a7a" stroke="#205a7a"></path><path d="M747.7 482L774.7 392L631 466Z" fill="#205a7a" stroke="#205a7a"></path><path d="M105.7 147L106.7 300L212.3 296Z" fill="#297ea6" stroke="#297ea6"></path><path d="M195.3 359L102.7 467L246.3 451Z" fill="#0c2435" stroke="#0c2435"></path><path d="M738.7 540L747.7 482L631 466Z" fill="#246688" stroke="#246688"></path><path d="M106.7 300L108.7 378L195.3 359Z" fill="#112e42" stroke="#112e42"></path><path d="M283 0L249.3 141L356 89Z" fill="#112e42" stroke="#112e42"></path><path d="M249.3 141L105.7 147L212.3 296Z" fill="#112e42" stroke="#112e42"></path><path d="M428.7 0L283 0L356 89Z" fill="#1d4e6b" stroke="#1d4e6b"></path><path d="M750.7 247L782.7 175L640 128Z" fill="#205a7a" stroke="#205a7a"></path><path d="M640 128L658 0L524.3 71Z" fill="#19435d" stroke="#19435d"></path><path d="M816.3 176L782.7 175L750.7 247Z" fill="#277297" stroke="#277297"></path><path d="M602 540L738.7 540L631 466Z" fill="#205a7a" stroke="#205a7a"></path><path d="M891.3 413L844.3 361L774.7 392Z" fill="#277297" stroke="#277297"></path><path d="M77.7 540L102.7 467L0 540Z" fill="#246688" stroke="#246688"></path><path d="M108.7 378L102.7 467L195.3 359Z" fill="#297ea6" stroke="#297ea6"></path><path d="M283 0L237.3 0L207.3 56Z" fill="#297ea6" stroke="#297ea6"></path><path d="M768.7 81L658 0L640 128Z" fill="#112e42" stroke="#112e42"></path><path d="M207.3 56L105.7 147L249.3 141Z" fill="#19435d" stroke="#19435d"></path><path d="M0 413L102.7 467L108.7 378Z" fill="#0c2435" stroke="#0c2435"></path><path d="M91.7 73L105.7 147L207.3 56Z" fill="#205a7a" stroke="#205a7a"></path><path d="M863.3 284L816.3 176L750.7 247Z" fill="#00101c" stroke="#00101c"></path><path d="M782.7 175L768.7 81L640 128Z" fill="#205a7a" stroke="#205a7a"></path><path d="M816.3 176L768.7 81L782.7 175Z" fill="#297ea6" stroke="#297ea6"></path><path d="M891.3 413L774.7 392L747.7 482Z" fill="#0c2435" stroke="#0c2435"></path><path d="M774.7 392L844.3 361L750.7 247Z" fill="#0c2435" stroke="#0c2435"></path><path d="M844.3 361L863.3 284L750.7 247Z" fill="#112e42" stroke="#112e42"></path><path d="M85.7 0L91.7 73L207.3 56Z" fill="#00101c" stroke="#00101c"></path><path d="M0 273L0 329L106.7 300Z" fill="#277297" stroke="#277297"></path><path d="M0 329L108.7 378L106.7 300Z" fill="#246688" stroke="#246688"></path><path d="M102.7 467L77.7 540L197.3 540Z" fill="#081a28" stroke="#081a28"></path><path d="M0 273L106.7 300L0 212Z" fill="#1d4e6b" stroke="#1d4e6b"></path><path d="M0 212L106.7 300L105.7 147Z" fill="#112e42" stroke="#112e42"></path><path d="M738.7 540L837.3 540L747.7 482Z" fill="#1d4e6b" stroke="#1d4e6b"></path><path d="M844.3 361L960 334L863.3 284Z" fill="#00101c" stroke="#00101c"></path><path d="M837.3 540L891.3 413L747.7 482Z" fill="#246688" stroke="#246688"></path><path d="M0 329L0 413L108.7 378Z" fill="#15384f" stroke="#15384f"></path><path d="M0 52L0 212L105.7 147Z" fill="#1d4e6b" stroke="#1d4e6b"></path><path d="M851.3 63L768.7 81L816.3 176Z" fill="#297ea6" stroke="#297ea6"></path><path d="M815.3 0L781.7 0L768.7 81Z" fill="#205a7a" stroke="#205a7a"></path><path d="M768.7 81L781.7 0L658 0Z" fill="#246688" stroke="#246688"></path><path d="M960 173L851.3 63L816.3 176Z" fill="#15384f" stroke="#15384f"></path><path d="M960 173L816.3 176L863.3 284Z" fill="#277297" stroke="#277297"></path><path d="M237.3 0L85.7 0L207.3 56Z" fill="#1d4e6b" stroke="#1d4e6b"></path><path d="M91.7 73L0 52L105.7 147Z" fill="#0c2435" stroke="#0c2435"></path><path d="M851.3 63L815.3 0L768.7 81Z" fill="#246688" stroke="#246688"></path><path d="M0 413L0 540L102.7 467Z" fill="#112e42" stroke="#112e42"></path><path d="M960 422L960 334L891.3 413Z" fill="#205a7a" stroke="#205a7a"></path><path d="M891.3 413L960 334L844.3 361Z" fill="#1d4e6b" stroke="#1d4e6b"></path><path d="M960 334L960 275L863.3 284Z" fill="#081a28" stroke="#081a28"></path><path d="M85.7 0L0 52L91.7 73Z" fill="#205a7a" stroke="#205a7a"></path><path d="M960 540L960 422L891.3 413Z" fill="#0c2435" stroke="#0c2435"></path><path d="M960 275L960 173L863.3 284Z" fill="#081a28" stroke="#081a28"></path><path d="M851.3 63L960 0L815.3 0Z" fill="#205a7a" stroke="#205a7a"></path><path d="M85.7 0L0 0L0 52Z" fill="#205a7a" stroke="#205a7a"></path><path d="M837.3 540L960 540L891.3 413Z" fill="#1d4e6b" stroke="#1d4e6b"></path><path d="M960 173L960 60L851.3 63Z" fill="#19435d" stroke="#19435d"></path><path d="M960 60L960 0L851.3 63Z" fill="#00101c" stroke="#00101c"></path></g></svg>